<?xml version="1.0" standalone="no"?>
<!DOCTYPE svg PUBLIC "-//W3C//DTD SVG 1.1//EN" "http://www.w3.org/Graphics/SVG/1.1/DTD/svg11.dtd" >
<svg xmlns="http://www.w3.org/2000/svg">
<metadata>
<json>
<![CDATA[
{
	"fontFamily": "icomoon",
	"description": "Font generated by IcoMoon.",
	"majorVersion": 0,
	"version": "Version 1.0",
	"fontId": "icomoon",
	"psName": "icomoon",
	"subFamily": "Regular",
	"fullName": "icomoon"
}
]]>
</json>
</metadata>
<defs>
<font id="icomoon" horiz-adv-x="1024">
<font-face units-per-em="1024" ascent="870.4" descent="-153.6" />
<missing-glyph horiz-adv-x="1024" />
<glyph unicode="&#x20;" d="" />
<glyph unicode="&#xe81a;" glyph-name="close" data-tags="close" d="M582.656 352l427.008 427.008c19.456 19.456 19.456 51.2 0 70.656s-51.2 19.456-70.656 0l-427.008-427.008-427.008 427.008c-19.456 19.456-51.2 19.456-70.656 0s-19.456-51.2 0-70.656l427.008-427.008-427.008-427.008c-19.456-19.456-19.456-51.2 0-70.656 10.24-9.216 22.528-14.336 35.84-14.336 12.288 0 25.6 5.12 34.816 14.336l427.008 427.008 427.008-427.008c9.216-9.216 22.528-14.336 34.816-14.336s25.6 5.12 35.84 14.336c19.456 19.456 19.456 51.2 0 70.656l-427.008 427.008z" />
<glyph unicode="&#xe900;" glyph-name="adress" data-tags="adress" d="M137.216-74.652c0 0-0.757-22.662 21.192-22.662 27.514 0 254.486 0.401 254.486 0.401l0.401 208.54c0 0-3.517 34.326 29.874 34.326h105.427c39.624 0 37.087-34.326 37.087-34.326l-0.401-208.006h249.055c28.093 0 26.847 28.138 26.847 28.138v384.579l-351.277 312.142-372.691-312.142v-390.99zM0 345.322c0 0 31.566-58.413 100.708 0l412.316 348.828 386.805-346.646c79.917-57.611 109.835 0 109.835 0l-496.685 449.714-512.979-451.896zM890.301 695.085h-99.417l0.401-120.609 99.061-84.057v204.666z" />
<glyph unicode="&#xe901;" glyph-name="arrow-down" data-tags="arrow-down" d="M872.046 699.429c-57.051 0-150.309 0-207.36 0h-292.718c-57.015 0-150.309 0-207.323 0h-60.965c-57.015 0-75.703-37.339-41.509-82.981l394.057-526.117c34.194-45.641 90.112-45.605 124.27 0l394.021 526.117c34.158 45.641 15.506 82.981-41.545 82.981h-60.928z" />
<glyph unicode="&#xe902;" glyph-name="arrow-left" data-tags="arrow-left" d="M379.407 395.657l223.546 449.526c12.47 25.103 32.697 25.103 45.168 0 12.45-25.093 12.45-65.749 0-90.812l-200.947-404.135 200.937-404.115c12.45-25.093 12.45-65.739 0-90.812-12.47-25.093-32.697-25.093-45.168 0l-223.536 449.526c-5.779 11.599-9.348 27.668-9.348 45.401 0 17.743 3.569 33.792 9.348 45.421v0z" />
<glyph unicode="&#xe903;" glyph-name="arrow-right" data-tags="arrow-right" d="M648.121 396.782l-223.577 448.431c-12.46 25.042-32.667 25.042-45.107 0-12.491-25.032-12.491-65.566 0-90.589l200.927-403.152-200.937-403.111c-12.491-25.032-12.491-65.587 0-90.599 12.45-25.012 32.656-25.012 45.107 0l223.577 448.431c5.779 11.609 9.328 27.607 9.328 45.279 0.010 17.712-3.538 33.711-9.317 45.309v0z" />
<glyph unicode="&#xe904;" glyph-name="face" data-tags="face" d="M345.185 282.87c15.070 0 27.378-12.327 27.378-27.378v-396.462c0-15.051 12.327-27.378 27.378-27.378h170.815c15.051 0 27.378 12.327 27.378 27.378v396.346c0 15.051 12.327 27.378 27.378 27.378h98.903c15.051 0 29.715 12.095 32.575 26.894l26.972 139.728c2.84 14.78-7.129 26.894-22.18 26.894h-135.4c-15.051 0-27.378 12.327-27.378 27.378 0 0 0 69.342 0 119.847 0 19.224 10.298 45.249 41.656 45.249 48.766 0 83.311 0 83.311 0 15.051 0 27.378 12.327 27.378 27.378v140.481c0.039 15.070-12.288 27.397-27.339 27.397 0 0-71.796 0-177.519 0-70.289 0-174.080-86.75-174.080-178.582 0-95.116 0-181.132 0-181.132 0-15.070-12.327-27.378-27.378-27.378h-76.124c-15.070-0.019-27.397-12.346-27.397-27.416v-139.264c0-15.051 12.327-27.378 27.378-27.378h76.298z" />
<glyph unicode="&#xe905;" glyph-name="bred-arrow" data-tags="bred-arrow" horiz-adv-x="639" d="M639.201 352l-639.201-511.744v1023.489l639.201-511.744z" />
<glyph unicode="&#xe906;" d="M1006.034 770.554l-325.525 92.563c-0.114 0.035-0.239 0.035-0.353 0.070-0.781 0.213-1.559 0.37-2.371 0.507-0.239 0.035-0.472 0.082-0.722 0.102-0.938 0.122-1.888 0.204-2.855 0.204h-0.058c-0.973 0-1.923-0.082-2.861-0.204-0.245-0.020-0.484-0.067-0.722-0.102-0.801-0.137-1.594-0.294-2.371-0.507-0.114-0.023-0.239-0.035-0.347-0.070l-319.192-90.766-319.186 90.766c-6.974 1.978-14.485 0.577-20.27-3.793-5.8-4.376-9.2-11.21-9.2-18.464v-884.003c0-10.339 6.858-19.423 16.812-22.26l325.516-92.563c0.114-0.035 0.227-0.035 0.338-0.067 0.781-0.213 1.57-0.373 2.383-0.51 0.239-0.035 0.463-0.064 0.699-0.099 0.95-0.125 1.923-0.204 2.905-0.204s1.943 0.079 2.893 0.204c0.236 0.035 0.475 0.064 0.711 0.099 0.801 0.137 1.605 0.297 2.371 0.51 0.114 0.035 0.239 0.035 0.35 0.067l319.2 90.769 319.183-90.769c2.089-0.588 4.215-0.883 6.339-0.883 4.973 0 9.891 1.605 13.946 4.676 5.78 4.373 9.194 11.21 9.194 18.464v884.003c0.006 10.339-6.861 19.426-16.807 22.26v0zM371.796 730.814l279.245 79.401v-835.876l-279.245-79.404v835.879zM46.283 810.215l279.233-79.401v-835.879l-279.233 79.404v835.876zM976.563-105.065l-279.242 79.404v835.876l279.242-79.401v-835.879zM262.421 28.587l-140.384 39.92c-12.294 3.49-25.095-3.639-28.588-15.933-3.49-12.294 3.636-25.095 15.93-28.585l140.376-39.923c2.124-0.597 4.25-0.891 6.339-0.891 10.092 0 19.359 6.645 22.251 16.824 3.499 12.294-3.633 25.086-15.924 28.588v0zM262.421 144.293l-140.384 39.92c-12.294 3.493-25.095-3.639-28.588-15.933-3.49-12.294 3.636-25.095 15.93-28.588l140.376-39.923c2.124-0.597 4.25-0.889 6.339-0.889 10.092 0 19.359 6.642 22.251 16.824 3.499 12.294-3.633 25.086-15.924 28.588v0zM262.421 259.999l-140.384 39.92c-12.294 3.49-25.095-3.639-28.588-15.933-3.49-12.294 3.636-25.098 15.93-28.588l140.376-39.923c2.124-0.6 4.25-0.891 6.339-0.891 10.092 0 19.359 6.645 22.251 16.824 3.499 12.297-3.633 25.089-15.924 28.591v0zM441.208 635.76c2.092 0 4.227 0.285 6.339 0.883l140.396 39.92c12.291 3.502 19.42 16.306 15.921 28.599-3.493 12.282-16.297 19.423-28.588 15.921l-140.396-39.92c-12.294-3.493-19.423-16.294-15.921-28.588 2.893-10.182 12.16-16.815 22.249-16.815v0zM575.276 68.508l-140.396-39.92c-12.282-3.505-19.423-16.306-15.921-28.599 2.893-10.17 12.157-16.812 22.249-16.812 2.092 0 4.227 0.294 6.339 0.891l140.396 39.923c12.291 3.49 19.42 16.294 15.933 28.585-3.502 12.294-16.306 19.426-28.599 15.933v0zM575.276 184.214l-140.396-39.92c-12.282-3.502-19.423-16.306-15.921-28.599 2.893-10.17 12.157-16.812 22.249-16.812 2.092 0 4.227 0.294 6.339 0.889l140.396 39.923c12.291 3.493 19.42 16.294 15.933 28.588-3.502 12.297-16.306 19.426-28.599 15.933v0zM575.276 299.92l-140.396-39.92c-12.282-3.505-19.423-16.306-15.921-28.599 2.893-10.17 12.157-16.812 22.249-16.812 2.092 0 4.227 0.291 6.339 0.891l140.396 39.923c12.291 3.49 19.42 16.294 15.933 28.588-3.502 12.291-16.306 19.423-28.599 15.93v0zM575.276 415.626l-140.396-39.92c-12.282-3.502-19.423-16.306-15.921-28.597 2.893-10.17 12.157-16.812 22.249-16.812 2.092 0 4.227 0.291 6.339 0.889l140.396 39.923c12.291 3.493 19.42 16.297 15.933 28.588-3.502 12.294-16.306 19.423-28.599 15.93v0zM760.408 676.567l140.393-39.92c2.124-0.6 4.25-0.883 6.351-0.883 10.077 0 19.347 6.633 22.249 16.815 3.493 12.294-3.636 25.095-15.933 28.588l-140.393 39.923c-12.297 3.49-25.098-3.642-28.585-15.921-3.508-12.297 3.633-25.101 15.918-28.602v0zM760.408 560.858l140.393-39.92c2.124-0.6 4.25-0.883 6.351-0.883 10.077 0 19.347 6.633 22.249 16.815 3.493 12.294-3.636 25.098-15.933 28.588l-140.393 39.923c-12.297 3.493-25.098-3.642-28.585-15.921-3.508-12.294 3.633-25.098 15.918-28.602v0zM760.408 445.152l140.393-39.92c2.124-0.597 4.25-0.883 6.351-0.883 10.077 0 19.347 6.633 22.249 16.815 3.493 12.294-3.636 25.095-15.933 28.588l-140.393 39.923c-12.297 3.49-25.098-3.642-28.585-15.921-3.508-12.294 3.633-25.098 15.918-28.602v0z" />
<glyph unicode="&#xe907;" d="M792.757-124.408h-560.067c-12.813 0-23.199 10.389-23.199 23.199v535.937l-71.966-33.725c-10.514-4.919-23.041-1.324-29.34 8.428l-104.471 161.766c-6.194 9.587-4.499 22.248 4.003 29.862l209.488 187.8c2.879 2.579 6.357 4.391 10.12 5.289l143.763 34.212c10.036 2.389 20.448-2.141 25.547-11.115 1.333-2.276 35.399-58.803 116.088-58.803 80.692 0 114.752 56.527 116.17 58.94 5.097 8.971 15.43 13.356 25.466 10.964l143.763-34.2c3.763-0.899 7.238-2.71 10.117-5.289l209.494-187.8c8.495-7.623 10.193-20.276 3.997-29.862l-104.477-161.763c-6.287-9.753-18.817-13.347-29.328-8.428l-71.969 33.725v-535.937c0-12.81-10.389-23.199-23.199-23.199v0zM255.892-78.007h513.666v549.235c0 7.929 4.055 15.316 10.751 19.576 6.695 4.256 15.112 4.802 22.295 1.427l86.661-40.613 82.74 128.111-190.35 170.646-122.854 29.226c-19.077-23.718-65.262-67.558-146.076-67.558-80.826 0-127.011 43.839-146.073 67.558l-122.857-29.226-190.359-170.646 82.74-128.111 86.672 40.613c7.177 3.375 15.599 2.83 22.292-1.427 6.695-4.259 10.751-11.646 10.751-19.576v-549.235z" />
<glyph unicode="&#xe908;" d="M646.646 158.569h-13.922c-12.813 0-23.199 10.389-23.199 23.199 0 10.036 6.377 18.59 15.305 21.819 3.227 8.927 11.78 15.296 21.819 15.296 12.813 0 23.199-10.377 23.199-23.202v-13.913c-0.003-12.81-10.392-23.199-23.202-23.199v0zM567.608 158.569h-22.327c-12.813 0-23.199 10.389-23.199 23.199s10.389 23.199 23.199 23.199h22.327c12.813 0 23.199-10.389 23.199-23.199s-10.386-23.199-23.199-23.199v0zM480.166 158.569h-22.327c-12.813 0-23.199 10.389-23.199 23.199s10.389 23.199 23.199 23.199h22.327c12.813 0 23.202-10.389 23.202-23.199s-10.389-23.199-23.202-23.199v0zM392.726 158.569h-13.922c-12.813 0-23.202 10.389-23.202 23.199v13.913c0 12.825 10.389 23.202 23.202 23.202 10.036 0 18.587-6.369 21.819-15.296 8.927-3.227 15.302-11.78 15.302-21.819 0-12.81-10.389-23.199-23.199-23.199v0zM378.804 243.996c-12.813 0-23.202 10.389-23.202 23.199v24.526c0 12.813 10.389 23.199 23.202 23.199s23.199-10.389 23.199-23.199v-24.526c0-12.81-10.389-23.199-23.199-23.199v0zM378.804 340.033c-12.813 0-23.202 10.38-23.202 23.202v24.515c0 12.813 10.389 23.199 23.202 23.199s23.199-10.389 23.199-23.199v-24.515c0-12.822-10.389-23.202-23.199-23.202v0zM378.804 436.064c-12.813 0-23.202 10.389-23.202 23.199v24.515c0 12.813 10.389 23.199 23.202 23.199s23.199-10.389 23.199-23.199v-24.515c0-12.81-10.389-23.199-23.199-23.199v0zM378.804 532.084c-12.813 0-23.202 10.389-23.202 23.199v13.922c0 12.813 10.389 23.199 23.202 23.199h13.922c12.813 0 23.199-10.389 23.199-23.199 0-10.036-6.377-18.59-15.302-21.819-3.232-8.927-11.783-15.302-21.819-15.302v0zM567.608 546.006h-22.327c-12.813 0-23.199 10.389-23.199 23.202s10.389 23.199 23.199 23.199h22.327c12.813 0 23.199-10.389 23.199-23.199s-10.386-23.202-23.199-23.202v0zM480.166 546.006h-22.327c-12.813 0-23.199 10.389-23.199 23.202s10.389 23.199 23.199 23.199h22.327c12.813 0 23.202-10.389 23.202-23.199s-10.389-23.202-23.202-23.202v0zM646.646 532.084c-10.036 0-18.59 6.377-21.819 15.302-8.93 3.23-15.305 11.783-15.305 21.819 0 12.813 10.389 23.199 23.199 23.199h13.922c12.813 0 23.199-10.389 23.199-23.199v-13.922c0.003-12.813-10.386-23.199-23.196-23.199v0zM646.646 243.996c-12.813 0-23.199 10.389-23.199 23.199v24.526c0 12.813 10.389 23.199 23.199 23.199s23.199-10.389 23.199-23.199v-24.526c0-12.81-10.389-23.199-23.199-23.199v0zM646.646 340.024c-12.813 0-23.199 10.392-23.199 23.202v24.526c0 12.813 10.389 23.199 23.199 23.199s23.199-10.389 23.199-23.199v-24.526c0-12.813-10.389-23.202-23.199-23.202v0zM646.646 436.056c-12.813 0-23.199 10.389-23.199 23.199v24.526c0 12.813 10.389 23.199 23.199 23.199s23.199-10.389 23.199-23.199v-24.526c0-12.813-10.389-23.199-23.199-23.199v0z" />
<glyph unicode="&#xe909;" d="M1002.245 845.037h-979.046c-12.81 0-23.199-10.389-23.199-23.199v-464.353c0-12.801 10.389-23.205 23.199-23.205h979.046c12.816 0 23.202 10.403 23.202 23.205v464.353c0.003 12.81-10.386 23.199-23.202 23.199v0zM979.049 380.684h-932.648v417.955h932.651v-417.955z" />
<glyph unicode="&#xe90a;" d="M1002.245 305.996c-12.822 0-23.196-10.389-23.196-23.199v-18.12h-149.419v18.12c0 12.813-10.377 23.199-23.202 23.199-12.816 0-23.202-10.389-23.202-23.199v-18.12h-149.408v18.12c0 12.813-10.389 23.199-23.196 23.199-12.816 0-23.202-10.389-23.202-23.199v-18.12h-149.405v18.12c0 12.813-10.389 23.199-23.199 23.199s-23.199-10.389-23.199-23.199v-18.12h-149.411v18.12c0 12.813-10.389 23.199-23.199 23.199s-23.199-10.389-23.199-23.199v-18.12h-149.408v18.12c0 12.813-10.389 23.199-23.202 23.199s-23.199-10.389-23.199-23.199v-41.319c0-12.796 10.389-23.199 23.199-23.199h408.325v-336.838c0-12.813 10.389-23.199 23.199-23.199s23.199 10.389 23.199 23.199v336.838h69.6v-336.838c0-12.813 10.389-23.199 23.202-23.199 12.81 0 23.196 10.389 23.196 23.199v336.838h408.325c12.816 0 23.202 10.403 23.202 23.199v41.319c0.003 12.813-10.386 23.199-23.202 23.199v0z" />
<glyph unicode="&#xe90b;" d="M950.452 214.025h-65.519l56.747 32.76c16.958 9.791 29.109 25.663 34.208 44.669 5.087 19.006 2.5 38.816-7.289 55.789l-113.469 196.534c-9.8 16.961-25.663 29.109-44.669 34.208-19.029 5.098-38.828 2.5-55.786-7.289l-56.756-32.763 32.771 56.747c9.789 16.958 12.376 36.771 7.289 55.777-5.098 19.018-17.247 34.878-34.208 44.669l-196.534 113.48c-35.116 20.273-80.182 8.198-100.458-26.919l-4.967-8.603c-6.762-11.72-2.753-26.715 8.979-33.491 11.729-6.762 26.715-2.753 33.488 8.979l4.955 8.606c6.765 11.705 21.785 15.729 33.491 8.979l196.534-113.48c5.626-3.245 9.657-8.536 11.37-14.89 1.698-6.368 0.848-12.961-2.395-18.587l-272.061-471.229c-0.143-0.227-0.277-0.454-0.408-0.693l-13.957-24.166c-2.141-3.735-3.28-7.959-3.28-12.256v-10.103c0-8.76 4.67-16.853 12.259-21.235 3.793-2.191 8.017-3.277 12.256-3.277 4.236 0 8.46 1.090 12.256 3.277l25.59 14.77c5.64 3.257 9.745 8.606 11.42 14.89 1.687 6.284 0.801 12.976-2.441 18.598l-4.382 7.577 34.242 59.297 21.497-37.211c4.539-7.863 12.772-12.268 21.246-12.268 4.166 0 8.379 1.066 12.233 3.292l93.813 54.16c5.64 3.254 9.745 8.606 11.42 14.89 1.687 6.284 0.801 12.976-2.444 18.601l-54.172 93.816c-3.242 5.626-8.594 9.742-14.878 11.417-1.194 0.323-2.415 0.527-3.636 0.658l64.095 111.013 130.284 75.229c5.626 3.245 12.221 4.093 18.59 2.395 6.357-1.71 11.644-5.745 14.901-11.37l113.466-196.534c3.242-5.626 4.093-12.221 2.38-18.59-1.698-6.357-5.733-11.647-11.356-14.901l-471.206-272.049c-0.251-0.131-0.489-0.274-0.728-0.42l-34.446-19.895c-7.589-4.379-12.259-12.472-12.259-21.22v-2.811c0-13.538 10.977-24.515 24.515-24.515h34.793c13.538 0 24.515 10.977 24.515 24.515v8.737l59.297 34.242v-42.979c0-13.538 10.986-24.515 24.512-24.515h108.333c13.538 0 24.515 10.977 24.515 24.515v108.333c0 8.102-3.95 15.26-10.010 19.726l111.016 64.086h150.441c13.515 0 24.512-10.986 24.512-24.515v-226.934c0-13.515-10.998-24.512-24.512-24.512h-537.686c-13.526 0-24.512-10.977-24.512-24.515 0-13.535 10.986-24.512 24.512-24.512h537.692c40.538 0 73.537 32.987 73.537 73.539v226.934c-0.009 40.544-32.999 73.542-73.545 73.542v0zM573.12 284.176l29.663-51.358-51.361-29.648-23.388 40.503 12.533 21.713 32.553 18.791zM649.975 56.665v-59.308h-59.297v46.775l21.701 12.533h37.596zM300.474 864h-226.934c-40.55 0-73.539-32.987-73.539-73.539v-876.912c0-40.55 32.99-73.539 73.539-73.539h226.934c40.553 0 73.539 32.987 73.539 73.539v876.912c0 40.553-32.987 73.539-73.539 73.539v0zM324.986-86.452c0-13.526-10.998-24.512-24.515-24.512h-226.931c-13.515 0-24.512 10.986-24.512 24.512v876.912c0 13.515 10.998 24.512 24.512 24.512h226.934c13.515 0 24.515-10.998 24.515-24.512v-876.912z" />
<glyph unicode="&#xe90c;" d="M891.155-51.667c13.535 0 24.512 10.977 24.512 24.515v108.333c0 13.535-10.977 24.512-24.512 24.512h-108.335c-13.535 0-24.512-10.977-24.512-24.512v-108.333c0-13.538 10.977-24.515 24.512-24.515h108.335zM807.335 56.665h59.305v-59.308h-59.305v59.308zM742.343 256.792l93.813 54.16c5.626 3.242 9.73 8.606 11.42 14.878 1.687 6.284 0.798 12.976-2.456 18.601l-54.16 93.827c-6.773 11.717-21.762 15.74-33.491 8.967l-93.813-54.16c-5.626-3.254-9.745-8.609-11.42-14.89-1.687-6.284-0.798-12.976 2.456-18.601l54.16-93.816c4.551-7.863 12.783-12.256 21.258-12.256 4.154-0.003 8.367 1.052 12.233 3.289v0zM709.403 362.864l51.358 29.645 29.648-51.361-51.358-29.648-29.648 51.364zM401.806 340.793c-6.762-11.717-2.741-26.715 8.987-33.479l0.454-0.262c3.854-2.226 8.067-3.28 12.221-3.28 8.475 0 16.708 4.393 21.244 12.259l54.175 93.816c3.242 5.634 4.128 12.326 2.441 18.613-1.675 6.272-5.78 11.633-11.417 14.875l-54.618 31.539c-11.729 6.762-26.715 2.741-33.479-8.976-6.773-11.732-2.753-26.715 8.967-33.491l33.395-19.271-39.381-68.214c-1.125-1.244-2.127-2.622-2.989-4.128v0zM425.744 548.867l93.83-54.175c3.851-2.229 8.067-3.289 12.23-3.289 8.463 0 16.71 4.402 21.246 12.268l54.172 93.813c3.245 5.626 4.131 12.314 2.444 18.598-1.675 6.272-5.794 11.636-11.42 14.878l-93.816 54.175c-11.729 6.773-26.718 2.753-33.491-8.976l-54.16-93.816c-3.257-5.626-4.14-12.317-2.453-18.601 1.684-6.272 5.792-11.636 11.417-14.875v0zM501.139 630.423l51.361-29.66-29.648-51.358-51.361 29.66 29.648 51.358zM187.005 76.044c-27.038 0-49.027-21.998-49.027-49.027 0-27.038 21.989-49.024 49.027-49.024s49.027 21.986 49.027 49.024c0 27.029-21.989 49.027-49.027 49.027v0z" />
<glyph unicode="&#xe90d;" horiz-adv-x="876" d="M853.029 600.053h-23.158c-12.786 0-23.169-10.374-23.169-23.169 0-12.783 10.374-23.155 23.158-23.166v-667.382h-519.58c-0.012 12.795-10.383 23.16-23.166 23.16-12.795 0-23.169-10.374-23.169-23.166v-23.16c0-12.795 10.374-23.169 23.169-23.169h565.916c12.792 0 23.163 10.377 23.163 23.169v713.714c0 12.795-10.371 23.169-23.163 23.169v0zM788.209-48.847v713.717c0 12.795-10.374 23.166-23.169 23.166h-23.14c-12.798 0-23.169-10.374-23.169-23.166s10.362-23.158 23.146-23.169v-667.382h-519.58c-0.012 12.795-10.374 23.155-23.169 23.155s-23.166-10.374-23.166-23.166v-23.158c0-12.795 10.374-23.166 23.166-23.166h565.913c12.798 0.003 23.169 10.374 23.169 23.169v0zM700.232 39.127v713.72c0 12.795-10.374 23.169-23.163 23.169h-76.776c-12.798 0-23.169-10.374-23.169-23.169s10.374-23.166 23.169-23.166h53.604v-667.385h-519.577c-0.012 12.795-10.383 23.158-23.166 23.158-12.795 0-23.169-10.377-23.169-23.169v-23.155c0-12.795 10.374-23.166 23.169-23.166h565.913c12.792-0.003 23.166 10.368 23.166 23.163v0z" />
<glyph unicode="&#xe90e;" horiz-adv-x="876" d="M612.26 127.114v544.343c0 0.766-0.047 1.55-0.125 2.307-0.058 0.562-0.149 1.107-0.251 1.663-0.035 0.189-0.041 0.396-0.084 0.586-0.125 0.658-0.297 1.311-0.489 1.961-0.023 0.076-0.035 0.154-0.058 0.227-0.204 0.653-0.437 1.285-0.688 1.92-0.023 0.067-0.047 0.151-0.079 0.216-0.251 0.588-0.524 1.157-0.813 1.719-0.058 0.114-0.102 0.227-0.16 0.329-0.274 0.51-0.574 0.996-0.883 1.486-0.102 0.146-0.181 0.312-0.297 0.472-0.285 0.428-0.597 0.836-0.926 1.247-0.137 0.189-0.274 0.382-0.417 0.577-0.353 0.417-0.74 0.813-1.11 1.212-0.149 0.157-0.274 0.315-0.411 0.46l-169.374 169.374c-0.146 0.146-0.318 0.271-0.463 0.408-0.396 0.385-0.792 0.757-1.212 1.107-0.192 0.157-0.385 0.283-0.577 0.428-0.408 0.318-0.816 0.635-1.256 0.926-0.146 0.105-0.318 0.195-0.463 0.285-0.487 0.315-0.973 0.623-1.483 0.897-0.102 0.055-0.216 0.102-0.326 0.143-0.565 0.297-1.133 0.58-1.719 0.827-0.079 0.020-0.149 0.044-0.216 0.067-0.635 0.259-1.267 0.498-1.923 0.69-0.079 0.023-0.16 0.035-0.239 0.058-0.632 0.189-1.291 0.361-1.946 0.498-0.192 0.032-0.396 0.055-0.588 0.090-0.554 0.090-1.098 0.192-1.663 0.248-0.755 0.079-1.538 0.114-2.307 0.114h-396.547c-12.792 0-23.166-10.374-23.166-23.166v-713.72c0-12.795 10.374-23.166 23.166-23.166h565.91c12.798 0 23.184 10.374 23.184 23.166v0zM442.871 784.908l90.279-90.282h-90.279v90.282zM46.335 150.28v667.385h350.2v-146.208c0-12.795 10.374-23.166 23.166-23.166h146.211v-498.011h-519.577z" />
<glyph unicode="&#xe90f;" d="M39.916 316.708v100.773h-39.916v20.611h103.297v-20.615h-39.912v-100.769h-23.469z" />
<glyph unicode="&#xe910;" d="M146.829 277.776h-23.469v141.534c0 8.017 3.409 12.598 6.017 14.884 4.009 3.437 9.228 3.898 13.237 3.898h37.11c6.819 0 21.059-1.151 31.284-13.284 10.831-12.824 11.232-31.605 11.232-44.889 0-16.035-0.806-33.435-8.422-45.802-10.030-16.491-26.477-17.408-37.309-17.408h-29.684v-38.932zM173.504 337.323c11.629 0 17.452 6.41 20.055 11.22 2.203 3.663 4.414 10.994 4.414 29.089 0 16.487-1.607 22.897-2.81 26.108-3.012 7.783-10.030 13.741-20.46 13.741h-23.068c-0.996 0-2.405-0.917-3.211-1.603-1.203-1.373-1.6-2.747-1.6-4.12v-74.431h26.68z" />
<glyph unicode="&#xe911;" d="M247.514 455.726v21.298h23.469v-21.298h-23.469zM247.514 438.091h23.469v-121.384h-23.469v121.384z" />
<glyph unicode="&#xe912;" d="M455.112 427.558c2.401 6.64 6.418 11.907 17.245 11.907 11.232 0 14.844-5.957 17.055-11.907l33.296-90.231h9.426v-20.615h-119.741v20.615h9.625l33.093 90.231zM444.88 337.323h54.959l-25.473 75.347c-0.401 1.143-0.802 3.203-2.008 3.203-0.798 0-1.802-1.83-2.203-3.203l-25.275-75.347z" />
<glyph unicode="&#xe913;" d="M673.546 390.225h71.601v-23.588h-71.601v23.588z" />
<glyph unicode="&#xe914;" d="M853.063 325.412c-1.611-4.806-5.219-10.073-13.641-10.073-8.426 0-12.034 5.267-13.645 10.073l-27.271 78.784c-0.202 0.687-0.806 2.52-1.603 2.52-1.211 0-1.211-1.373-1.211-2.060l1.008-87.945h-23.465v105.345c0 11.911 8.621 17.408 18.253 17.408 8.823 0 14.638-3.207 18.051-13.054l26.874-77.181c0.405-1.143 2.012-4.806 3.016-4.806 0.996 0 2.604 3.663 3.008 4.806l26.874 77.181c3.401 9.847 9.224 13.054 18.047 13.054 9.637 0 18.257-5.497 18.257-17.408v-105.349h-23.465l1.008 87.945c0 1.373-0.806 2.294-1.211 2.294-0.603 0-1.405-1.83-1.806-2.751l-27.080-78.784z" />
<glyph unicode="&#xe915;" d="M645.445 336.116c0.008 0.329 0.016 0.671 0.016 0.976v62.98c0 13.514-3.405 23.361-7.827 28.624-4.814 5.727-13.038 9.395-22.064 9.395h-60.376v-20.615h52.351c3.612 0 8.224-0.687 11.435-5.271 2.604-3.663 3.008-7.783 3.008-11.447v-8.474h-46.128c-5.62 0-12.836-0.46-19.456-7.101-8.021-8.017-9.025-18.781-9.025-29.541 0-8.93 0.599-24.505 9.228-32.978 6.017-5.957 13.435-5.957 19.258-5.957h78.542c-0.004 0-8.775 3.465-8.962 19.408zM582.481 337.323c-3.008 0-6.025 1.83-7.624 3.663-2.806 3.433-3.207 9.843-3.207 13.51 0 8.704 1.798 11.907 2.604 13.054 2.604 3.894 7.017 4.124 8.629 4.124h39.11v-27.942c0-1.83 0-3.433-1.607-5.037-1.6-1.373-3.81-1.373-5.211-1.373h-32.693z" />
<glyph unicode="&#xe916;" d="M403.631 316.771c0 0-8.982 3.517-8.982 19.901h-0.318c0 0.135 0.004 0.29 0.004 0.421v62.98c0 13.514-3.409 23.361-7.819 28.624-4.814 5.727-13.042 9.395-22.064 9.395h-60.376v-20.615h52.351c3.612 0 8.228-0.687 11.435-5.271 2.604-3.663 3.008-7.783 3.008-11.447v-8.474h-46.136c-5.616 0-12.836-0.46-19.452-7.101-8.025-8.017-9.029-18.781-9.029-29.541 0-8.93 0.603-24.505 9.232-32.978 6.013-5.957 13.435-5.957 19.254-5.957h50.748c0.814 0 1.655 0.024 2.496 0.064h25.648zM323.735 340.99c-2.81 3.433-3.211 9.843-3.211 13.51 0 8.704 1.802 11.907 2.608 13.054 2.604 3.894 7.021 4.124 8.625 4.124h39.11v-27.942c0-1.83 0-3.433-1.603-5.037-1.603-1.373-3.81-1.373-5.215-1.373h-32.693c-3.008-0.004-6.017 1.83-7.62 3.663z" />
<glyph unicode="&#xe917;" d="M180.899 238.713v37.384h15.991l5.68-21.337c0.266-0.976 0.492-2.068 0.675-3.282 0.191-1.218 0.365-2.556 0.52-4.013 0.425 2.425 0.877 4.854 1.357 7.283l5.969 21.349h15.725v-37.384h-10.427l0.472 23.6 0.476 9.343-9.089-32.943h-8.855l-8.775 32.943 0.159-9.343 0.556-23.6h-10.434z" />
<glyph unicode="&#xe918;" d="M265.47 276.097v-3.909c1.004 1.723 2.227 2.973 3.679 3.743 1.445 0.774 3.251 1.163 5.414 1.163 3.532 0 6.136-0.933 7.823-2.786 1.901-2.123 2.85-5.656 2.85-10.605v-13.522c0-3.58-0.687-6.41-2.060-8.486-1.734-2.651-4.612-3.977-8.613-3.977-2.108 0-3.902 0.349-5.374 1.060-1.476 0.706-2.822 1.969-4.036 3.782l-0.155-16.376h-9.803v49.914h10.276zM265.47 262.178v-11.2c0-4.421 1.659-6.628 4.981-6.628 1.472 0 2.592 0.595 3.358 1.79 0.766 1.191 1.143 2.735 1.143 4.636v12.463c0 2.564-0.155 4.219-0.472 4.973-0.635 1.5-2.028 2.254-4.191 2.254-2.112 0-3.505-0.996-4.191-2.985-0.417-1.195-0.627-2.961-0.627-5.303z" />
<glyph unicode="&#xe919;" d="M325.227 280.538h-10.276v7.823h10.276v-7.823zM325.227 238.713h-10.276v37.384h10.276v-37.384z" />
<glyph unicode="&#xe91a;" d="M358.348 281.4h-10.034v7.62h10.034v-7.62zM366.171 238.713h-10.272v37.384h10.272v-37.384zM373.839 281.4h-10.113v7.62h10.113v-7.62z" />
<glyph unicode="&#xe91b;" d="M436.756 276.097h27.668v-30.756h2.766v-13.788h-9.486v7.156h-17.079v-7.156h-9.486v13.788h0.794c2.108 0.175 3.481 1.215 4.108 3.116 0.48 1.413 0.71 4.044 0.71 7.89v19.75zM454.152 269.469h-7.91v-13.788c0-2.473-0.131-4.505-0.393-6.096s-0.921-3.008-1.973-4.243h10.272v24.128z" />
<glyph unicode="&#xe91c;" d="M503.078 276.097v-3.909c1.004 1.723 2.227 2.973 3.679 3.743 1.445 0.774 3.247 1.163 5.414 1.163 3.532 0 6.14-0.933 7.823-2.786 1.901-2.123 2.846-5.656 2.846-10.605v-13.522c0-3.58-0.683-6.41-2.056-8.486-1.734-2.651-4.608-3.977-8.613-3.977-2.112 0-3.905 0.349-5.374 1.060-1.476 0.706-2.822 1.969-4.036 3.782l-0.155-16.372h-9.803v49.91h10.276zM503.078 262.178v-11.2c0-4.421 1.659-6.628 4.977-6.628 1.476 0 2.6 0.595 3.366 1.79 0.766 1.191 1.143 2.735 1.143 4.636v12.463c0 2.564-0.155 4.219-0.472 4.973-0.635 1.5-2.032 2.254-4.191 2.254-2.112 0-3.509-0.996-4.191-2.985-0.421-1.195-0.631-2.961-0.631-5.303z" />
<glyph unicode="&#xe91d;" d="M545.681 276.097h10.831l4.509-19.817c0.107-0.488 0.318-1.758 0.631-3.81 0.318-2.056 0.603-4.1 0.869-6.132 0.056 1.5 0.302 3.227 0.75 5.172 0.445 1.945 0.778 3.449 0.984 4.509l4.513 20.083h10.434l-10.831-37.916c-1.532-4.953-2.659-7.934-3.401-8.946-1.683-2.302-4.66-3.449-8.93-3.449-1.155 0-2.743 0.111-4.743 0.329v6.696c1.103-0.087 2-0.135 2.691-0.135 1.056 0 1.818 0.087 2.286 0.266 0.746 0.31 1.115 0.818 1.115 1.52 0 0.623-0.091 1.326-0.278 2.123s-0.413 1.683-0.675 2.651l-10.756 36.856z" />
<glyph unicode="&#xe91e;" d="M613.265 238.713h-10.113v37.384h10.113v-10.153l0.040-4.715 9.871 14.856 11.193 0.012-11.224-15.046 10.907-22.337h-11.546l-6.45 15.245-2.79-3.842v-11.403z" />
<glyph unicode="&#xe91f;" d="M652.387 276.097h10.831l4.509-19.817c0.107-0.488 0.318-1.758 0.631-3.81 0.318-2.056 0.603-4.1 0.869-6.132 0.056 1.5 0.302 3.227 0.75 5.172 0.445 1.945 0.778 3.449 0.988 4.509l4.509 20.083h10.434l-10.831-37.916c-1.532-4.953-2.659-7.934-3.401-8.946-1.683-2.302-4.66-3.449-8.93-3.449-1.155 0-2.743 0.111-4.743 0.329v6.696c1.107-0.087 2-0.135 2.691-0.135 1.056 0 1.818 0.087 2.286 0.266 0.746 0.31 1.115 0.818 1.115 1.52 0 0.623-0.091 1.326-0.278 2.123s-0.413 1.683-0.675 2.651l-10.756 36.856z" />
<glyph unicode="&#xe920;" d="M726.064 254.819h-4.902v-16.106h-10.284v37.384h10.284v-14.65h4.902c0 5.481 0.841 9.303 2.528 11.47 2.155 2.782 6.35 4.179 12.57 4.179 4.795 0 8.327-0.865 10.593-2.592 2-1.504 3.259-3.941 3.782-7.303 0.318-1.949 0.48-5.668 0.48-11.157 0-6.993-0.841-11.685-2.528-14.078-1.992-2.878-6.092-4.314-12.292-4.314-6.152 0-10.284 1.33-12.375 3.993-1.85 2.302-2.758 6.696-2.758 13.173zM736.331 263.353v-12.49c0-2.131 0.079-3.477 0.234-4.052 0.472-1.687 2.008-2.524 4.624-2.524 2.044 0 3.346 0.508 3.917 1.528 0.417 0.754 0.635 2.437 0.635 5.053v12.49c0 2.969-0.373 4.894-1.099 5.783-0.734 0.885-1.885 1.33-3.453 1.33-2.298 0-3.755-0.734-4.382-2.195-0.318-0.758-0.476-2.397-0.476-4.922z" />
<glyph unicode="&#xe921;" d="M779.101 276.097h29.398v-6.628h-9.561v-30.76h-10.276v30.76h-9.561v6.628z" />
<glyph unicode="&#xe922;" d="M833.631 276.097h10.284v-14.447h2.604c5.799 0 9.958-0.71 12.49-2.131 3.163-1.77 4.735-4.941 4.735-9.506 0-4.346-1.445-7.382-4.342-9.105-1.377-0.802-3.155-1.365-5.338-1.695-2.187-0.333-4.441-0.5-6.759-0.5h-13.677v37.384zM844.927 245.075c3.040 0 5.104 0.246 6.2 0.734 1.568 0.71 2.354 2.179 2.354 4.406 0 2.044-0.754 3.425-2.274 4.136-1.147 0.532-3.008 0.802-5.565 0.802h-1.723v-10.077h1.008z" />
<glyph unicode="&#xe923;" d="M916.155 263.106h-10.272v4.175c0 2.123-1.187 3.183-3.556 3.183-1.742 0-2.878-0.826-3.401-2.461-0.318-1.016-0.472-2.989-0.472-5.914v-8.835c0-3.679 0.234-6.049 0.714-7.112 0.472-1.064 1.52-1.687 3.163-1.861 1.417 0 2.373 0.532 2.846 1.588 0.262 0.576 0.504 1.877 0.714 3.913v3.449h10.272v-3.449c0-4.068-1.091-7.104-3.278-9.113-2.187-2.012-5.783-3.016-10.792-3.016-4.636 0-8.117 1.115-10.434 3.35-2.326 2.235-3.473 5.787-3.473 10.657v12.153c0 4.866 1.334 8.386 4.025 10.558 2.27 1.818 5.557 2.727 9.883 2.727 4.846 0 8.49-1.131 10.907-3.382 2.108-1.945 3.163-4.489 3.163-7.624v-2.985z" />
<glyph unicode="&#xe924;" d="M971.8 238.713h-10.272v15.245h-2.528c-2.481 0-4.092-0.929-4.83-2.782-0.31-0.798-0.536-1.846-0.667-3.151-0.131-1.302-0.194-2.794-0.194-4.473 0-0.794-0.048-1.449-0.123-1.957-0.079-0.508-0.246-1.135-0.512-1.889l-0.31-0.992h-11.077v0.464c0.425 0.218 0.798 0.718 1.107 1.492 0.318 0.77 0.568 2.306 0.75 4.608 0.179 2.298 0.27 4.31 0.27 6.029 0 0.976 0.202 1.838 0.595 2.588s1.032 1.437 1.893 2.056c0.877 0.619 2.024 1.060 3.441 1.326-2.262 0.706-3.886 1.802-4.862 3.282s-1.465 3.259-1.465 5.334c0 3.628 1.179 6.231 3.52 7.823 2.35 1.592 5.914 2.385 10.712 2.385h14.542v-37.388zM961.528 260.257v9.478h-2.425c-1.782 0-3.211-0.361-4.31-1.091-1.091-0.73-1.643-1.957-1.643-3.679 0-1.588 0.552-2.806 1.643-3.644 0.937-0.706 2.108-1.060 3.528-1.060h3.207z" />
<glyph unicode="&#xe925;" d="M988.557 238.713h-10.434v8.752h10.434v-8.752z" />
<glyph unicode="&#xe926;" d="M1006.187 238.713h-10.434v8.752h10.434v-8.752z" />
<glyph unicode="&#xe927;" d="M1023.813 238.713h-10.442v8.752h10.442v-8.752z" />
<glyph unicode="&#xe928;" glyph-name="menu" data-tags="menu" d="M954.835 610.964h-891.185c-35.139 0-63.65 28.51-63.65 63.668 0 35.121 28.51 63.614 63.65 63.614h891.185c35.121 0 63.65-28.492 63.65-63.614 0-35.157-28.528-63.668-63.65-63.668v0zM954.835 292.698h-891.185c-35.139 0-63.65 28.456-63.65 63.614s28.51 63.65 63.65 63.65h891.185c35.121 0 63.65-28.492 63.65-63.65s-28.528-63.614-63.65-63.614v0zM954.835-25.587h-891.185c-35.139 0-63.65 28.456-63.65 63.614s28.51 63.686 63.65 63.686h891.185c35.121 0 63.65-28.528 63.65-63.686s-28.528-63.614-63.65-63.614v0z" />
<glyph unicode="&#xe929;" glyph-name="search" data-tags="search" d="M1005.145-50.701l-253.634 253.598c50.351 68.736 80.403 153.293 80.403 245.038-0.036 229.831-186.27 416.065-415.993 416.065-229.687 0-415.921-186.234-415.921-416.065 0-229.723 186.234-415.921 415.921-415.921 91.781 0 176.301 30.052 245.11 80.403l253.598-253.634c24.959-25.031 65.522-25.031 90.517 0 24.995 24.959 24.995 65.522 0 90.517zM63.932 447.935c0 194.47 157.627 352.025 351.989 352.025s351.916-157.555 351.916-352.025c0-194.361-157.519-351.916-351.916-351.916-194.361 0-351.989 157.591-351.989 351.916z" />
<glyph unicode="&#xe92a;" glyph-name="twitter" data-tags="twitter" d="M1036.581 673.097c-38.583-16.823-79.579-28.014-122.295-33.426 43.995 26.258 77.568 67.511 93.513 117.175-41.143-24.43-86.418-41.655-134.802-51.31-39.058 41.435-94.72 67.035-155.282 67.035-117.65 0-212.443-95.232-212.443-211.858 0-16.859 1.39-33.061 4.864-48.384-176.567 8.667-332.873 92.965-437.979 221.623-18.249-31.781-29.038-68.059-29.038-107.154 0-73.326 37.925-138.423 94.427-176.091-34.085 0.658-67.694 10.569-96 26.149 0-0.658 0-1.463 0-2.194 0-103.058 73.728-188.599 170.313-208.238-17.408-4.937-36.242-7.131-55.808-7.131-13.678 0-27.319 0.768-40.155 3.657 27.502-83.858 105.582-145.591 198.473-147.529-72.302-56.43-163.986-90.441-263.424-90.441-17.518 0-34.231 0.768-50.981 2.999 94.171-60.562 205.787-95.232 326.071-95.232 391.022 0 604.818 323.109 604.818 602.99 0 9.399-0.293 18.395-0.768 27.392 42.203 29.842 77.714 67.182 106.496 109.97v0z" />
<glyph unicode="&#xe92b;" glyph-name="vk" data-tags="vk" d="M1009.77 119.765c-1.229 2.654-2.384 4.833-3.457 6.611-17.613 31.711-51.282 70.648-100.942 116.793l-1.057 1.081-1.065 1.032h-0.508c-22.544 21.512-36.831 35.963-42.82 43.344-10.928 14.090-13.41 28.385-7.422 42.82 4.26 10.936 20.079 33.989 47.587 69.247 14.451 18.653 25.903 33.645 34.333 44.909 60.973 81.060 87.392 132.858 79.282 155.402l-3.138 5.267c-2.114 3.162-7.569 6.087-16.368 8.708-8.815 2.662-20.079 3.105-33.841 1.335l-152.232-1.049c-2.449 0.852-5.98 0.795-10.559-0.287-4.596-1.040-6.898-1.581-6.898-1.581l-2.621-1.335-2.097-1.581c-1.778-1.049-3.711-2.884-5.825-5.538-2.097-2.638-3.875-5.734-5.267-9.249-16.589-42.639-35.406-82.264-56.574-118.915-13.058-21.856-25.027-40.796-35.955-56.828-10.928-16.024-20.079-27.845-27.46-35.414-7.422-7.569-14.098-13.656-20.095-18.211-6.013-4.596-10.576-6.521-13.746-5.825-3.17 0.729-6.177 1.425-8.995 2.122-4.948 3.162-8.897 7.479-11.87 12.952-3.006 5.448-5.038 12.329-6.078 20.627-1.057 8.266-1.679 15.393-1.876 21.381-0.164 5.98-0.066 14.475 0.287 25.371 0.336 10.928 0.524 18.342 0.524 22.2 0 13.41 0.254 27.951 0.77 43.622 0.524 15.688 0.975 28.099 1.327 37.249 0.352 9.159 0.524 18.842 0.524 29.082 0 10.199-0.623 18.219-1.86 24.044-1.212 5.8-3.072 11.436-5.554 16.916-2.466 5.448-6.078 9.691-10.83 12.665-4.751 3.006-10.641 5.382-17.678 7.168-18.686 4.219-42.484 6.488-71.352 6.873-65.536 0.696-107.643-3.555-126.329-12.706-7.414-3.858-14.090-9.159-20.079-15.835-6.332-7.758-7.225-12.001-2.662-12.698 21.16-3.17 36.11-10.748 44.95-22.708l3.162-6.365c2.474-4.563 4.948-12.673 7.389-24.297 2.466-11.624 4.055-24.486 4.743-38.576 1.778-25.723 1.778-47.743 0-66.077-1.729-18.301-3.416-32.596-5.005-42.795-1.581-10.24-3.957-18.498-7.127-24.863-3.162-6.341-5.284-10.207-6.357-11.633-1.049-1.393-1.933-2.277-2.63-2.63-4.588-1.769-9.339-2.662-14.287-2.662-4.907 0-10.895 2.466-17.957 7.414-7.029 4.94-14.344 11.723-21.922 20.374-7.561 8.61-16.122 20.677-25.657 36.192-9.503 15.499-19.35 33.8-29.581 54.96l-8.454 15.327c-5.292 9.847-12.509 24.207-21.668 43.082-9.15 18.85-17.261 37.061-24.297 54.706-2.818 7.381-7.062 13.009-12.706 16.908l-2.63 1.581c-1.778 1.401-4.596 2.892-8.462 4.506-3.891 1.581-7.913 2.728-12.165 3.416l-144.802-1.049c-14.795 0-24.838-3.359-30.122-10.043l-2.13-3.17c-1.049-1.778-1.581-4.588-1.581-8.454 0-3.899 1.040-8.643 3.17-14.287 21.16-49.668 44.122-97.591 68.985-143.737 24.838-46.195 46.408-83.345 64.717-111.534 18.342-28.197 36.995-54.804 56.033-79.798 19.038-25.027 31.638-41.050 37.782-48.112 6.177-7.062 11.035-12.321 14.541-15.843l13.206-12.698c8.462-8.454 20.873-18.596 37.282-30.376 16.376-11.813 34.529-23.446 54.428-34.914 19.923-11.436 43.074-20.775 69.526-28.008 26.419-7.217 52.142-10.134 77.169-8.7h60.785c12.321 1.040 21.668 4.932 28 11.616l2.097 2.621c1.425 2.13 2.753 5.39 3.949 9.798 1.229 4.391 1.876 9.241 1.876 14.524-0.352 15.155 0.786 28.795 3.424 40.96 2.621 12.124 5.636 21.291 8.995 27.468 3.359 6.185 7.119 11.37 11.379 15.589 4.211 4.235 7.217 6.775 8.995 7.66 1.745 0.893 3.138 1.499 4.211 1.876 8.462 2.81 18.399 0.057 29.868-8.217 11.436-8.298 22.176-18.489 32.244-30.654 10.052-12.157 22.11-25.821 36.176-40.952 14.131-15.147 26.452-26.436 37.011-33.841l10.576-6.324c7.053-4.26 16.22-8.11 27.484-11.633 11.28-3.547 21.135-4.432 29.581-2.662l135.332 2.138c13.361 0 23.79 2.212 31.171 6.611 7.406 4.399 11.788 9.257 13.214 14.508 1.425 5.292 1.491 11.28 0.27 17.99-1.27 6.685-2.499 11.379-3.703 14.017v0z" />
<glyph unicode="&#xe92c;" glyph-name="phone" data-tags="phone" d="M967.384 152.812c-68.352 0-136.704 11.38-205.056 34.14-16.928 5.548-39.759 0-56.687-11.38l-125.324-125.253c-159.18 79.732-290.336 216.436-375.616 375.616l125.324 125.324c16.928 16.928 22.76 39.688 11.38 56.616-17.212 62.804-28.664 130.801-28.664 199.153 0 34.212-22.689 56.972-56.545 56.972h-199.224c-34.212 0-56.972-22.76-56.972-56.972 0-534.725 432.303-967.028 967.384-967.028 33.927 0 56.687 22.76 56.687 56.687v199.224c-0.071 34.14-22.831 56.901-56.687 56.901v0zM910.412 352.036h113.659c0 284.504-227.532 512.036-512.036 512.036v-113.944c221.913-0.071 398.376-176.108 398.376-398.092v0zM682.88 352.036h113.659c0 159.18-125.039 284.504-284.504 284.504v-113.944c96.66 0 170.844-73.9 170.844-170.56v0z" />
<glyph unicode="&#xe92d;" glyph-name="a-up" data-tags="a-up" horiz-adv-x="1821" d="M829.732 830.734l-796.337-796.594c-44.505-44.248-44.505-116.432 0-160.873 44.441-44.312 116.368-44.312 160.873 0l715.997 715.997 715.869-715.933c44.441-44.312 116.432-44.312 160.937 0 44.377 44.441 44.377 116.561 0 160.873l-796.402 796.53c-20.551 20.551-49.065 33.266-80.404 33.266-31.532 0-59.982-12.716-80.533-33.266v0z" />
<glyph unicode="&#xe92e;" glyph-name="a-down" data-tags="a-down" horiz-adv-x="1821" d="M829.732-126.734l-796.337 796.659c-44.505 44.248-44.505 116.432 0 160.873 44.441 44.312 116.368 44.312 160.873 0l715.997-715.933 715.869 715.869c44.441 44.312 116.432 44.312 160.937 0 44.377-44.441 44.377-116.561 0-160.873l-796.402-796.594c-20.486-20.486-49.065-33.266-80.404-33.266-31.532 0.064-59.982 12.78-80.533 33.266v0z" />
<glyph unicode="&#xe92f;" d="M262.421 681.164l-140.384 39.923c-6.986 1.987-14.488 0.588-20.27-3.799-5.797-4.373-9.2-11.21-9.2-18.464v-305.456c0-10.354 6.858-19.437 16.812-22.263l140.376-39.923c2.089-0.6 4.215-0.877 6.339-0.877 4.973 0 9.876 1.602 13.946 4.676 5.786 4.373 9.194 11.21 9.194 18.464v305.458c-0.003 10.351-6.872 19.437-16.812 22.26v0zM232.947 384.081l-94.098 26.758v257.352l94.098-26.758v-257.352zM760.408 23.99l140.393-39.923c2.089-0.597 4.215-0.88 6.339-0.88 4.973 0 9.891 1.602 13.946 4.667 5.78 4.384 9.194 11.219 9.194 18.473v305.456c0 10.342-6.867 19.437-16.812 22.263l-140.393 39.923c-6.98 1.987-14.488 0.588-20.285-3.787-5.78-4.373-9.183-11.21-9.183-18.464v-305.47c0-10.339 6.855-19.434 16.801-22.257v0zM789.887 321.073l94.113-26.77v-257.34l-94.113 26.758v257.352z" />
<glyph unicode="&#xe930;" glyph-name="mail" data-tags="mail" horiz-adv-x="1444" d="M1168.735 71.576c-7.237 0-10.855 3.618-14.473 7.237l-267.76 249.668c-10.855 7.237-10.855 21.71 0 32.565 7.237 10.855 25.329 10.855 32.565 0l267.76-249.668c10.855-7.237 10.855-25.329 0-32.565-7.237-3.618-10.855-7.237-18.092-7.237v0zM274.996 71.576c-7.237 0-10.855 3.618-18.092 7.237-7.237 10.855-7.237 25.329 0 32.565l267.76 249.668c10.855 7.237 25.329 7.237 32.565 0 7.237-10.855 7.237-25.329 0-32.565l-267.76-249.668c-3.618-3.618-10.855-7.237-14.473-7.237v0zM1327.943-160h-1212.155c-65.131 0-115.788 50.657-115.788 115.788v792.424c0 65.131 50.657 115.788 115.788 115.788h1208.537c65.131 0 115.788-50.657 115.788-115.788v-792.424c3.618-65.131-50.657-115.788-112.17-115.788v0zM115.788 816.961c-39.802 0-68.749-32.565-68.749-68.749v-792.424c0-39.802 32.565-68.749 68.749-68.749h1208.537c39.802 0 68.749 32.565 68.749 68.749v792.424c0 39.802-32.565 68.749-68.749 68.749h-1208.537zM720.057 234.403c-32.565 0-61.512 10.855-86.841 28.947l-593.413 521.046c-10.855 10.855-10.855 25.329-3.618 36.184 7.237 7.237 21.71 7.237 32.565 0l597.032-521.046c28.947-25.329 79.604-25.329 108.551 0l597.032 521.046c10.855 7.237 25.329 7.237 36.184-3.618 7.237-10.855 7.237-25.329-3.618-32.565l-597.032-517.428c-25.329-21.71-54.276-32.565-86.841-32.565v0z" />
<glyph unicode="&#xe931;" glyph-name="un-chek" data-tags="un-chek" d="M911.83 864h-796.042c-65.131 0-115.788-50.657-115.788-112.17v0-796.042c0-61.512 50.657-112.17 115.788-112.17h796.042c61.512 0 112.17 50.657 112.17 112.17v796.042c0 61.512-50.657 112.17-112.17 112.17zM911.83 295.915v-343.746h-796.042v796.042h796.042v-452.297z" />
<glyph unicode="&#xe932;" glyph-name="chek" data-tags="chek" d="M278.615 458.742l-79.604-79.604 256.905-256.905 568.085 571.703-79.604 79.604-488.481-492.099-177.3 177.3zM911.83-47.83h-796.042v796.042h568.085v115.788h-568.085c-65.131 0-115.788-50.657-115.788-115.788v-796.042c0-61.512 50.657-112.17 115.788-112.17h796.042c61.512 0 112.17 50.657 112.17 112.17v455.915h-112.17v-455.915z" />
<glyph unicode="&#xe933;" glyph-name="s1" data-tags="s1" horiz-adv-x="565" d="M564.595 793.077v35.461c0 19.524-15.938 35.461-35.461 35.461h-493.672c-19.524 0-35.461-15.938-35.461-35.461v-35.461c0-19.524 15.938-35.461 35.461-35.461h493.672c19.922 0 35.461 15.938 35.461 35.461v0zM462.593 640.872h-427.132c-19.524 0-35.461-15.938-35.461-35.461v-35.461c0-19.524 15.938-35.461 35.461-35.461h427.132c19.524 0 35.461 15.938 35.461 35.461v35.461c0 19.524-15.938 35.461-35.461 35.461v0zM396.053 417.345h-360.591c-19.524 0-35.461-15.539-35.461-35.461v-35.461c0-19.524 15.938-35.461 35.461-35.461h360.591c19.524 0 35.461 15.938 35.461 35.461v35.461c0 19.922-15.938 35.461-35.461 35.461v0zM329.513 169.513h-294.051c-19.524 0-35.461-15.938-35.461-35.461v-35.461c0-19.524 15.938-35.461 35.461-35.461h294.051c19.524 0 35.461 15.938 35.461 35.461v35.461c0 19.524-15.938 35.461-35.461 35.461v0zM262.973-53.616h-227.511c-19.524 0-35.461-15.938-35.461-35.461v-35.461c0-19.524 15.938-35.461 35.461-35.461h227.511c19.524 0 35.461 15.938 35.461 35.461v35.461c0 19.524-15.938 35.461-35.461 35.461v0z" />
<glyph unicode="&#xe934;" glyph-name="s2" data-tags="s2" horiz-adv-x="565" d="M564.595-89.077c0 19.524-15.938 35.461-35.461 35.461h-493.672c-19.524 0-35.461-15.938-35.461-35.461v-35.461c0-19.524 15.938-35.461 35.461-35.461h493.672c19.524 0 35.461 15.938 35.461 35.461v35.461zM462.593 63.128c19.524 0 35.461 15.938 35.461 35.461v35.461c0 19.524-15.938 35.461-35.461 35.461h-427.132c-19.524 0-35.461-15.938-35.461-35.461v-35.461c0-19.524 15.938-35.461 35.461-35.461h427.132zM396.053 286.257c19.524 0 35.461 15.938 35.461 35.461v35.461c0 19.524-15.938 35.461-35.461 35.461h-360.591c-19.524 0-35.461-15.938-35.461-35.461v-35.461c0-19.524 15.938-35.461 35.461-35.461h360.591zM329.513 534.487c19.524 0 35.461 15.938 35.461 35.461v35.461c0 19.524-15.938 35.461-35.461 35.461h-294.051c-19.524 0-35.461-15.938-35.461-35.461v-35.461c0-19.524 15.938-35.461 35.461-35.461h294.051zM262.973 757.616c19.524 0 35.461 15.938 35.461 35.461v35.461c0 19.524-15.938 35.461-35.461 35.461h-227.511c-19.524 0-35.461-15.938-35.461-35.461v-35.461c0-19.524 15.938-35.461 35.461-35.461h227.511z" />
<glyph unicode="&#xe935;" glyph-name="time" data-tags="time" d="M512 864c-281.901 0-512-230.099-512-512 0-283.106 230.099-512 512-512 283.106 0 512 228.894 512 512 0 281.901-228.894 512-512 512v0zM512-51.576c-221.666 0-403.576 180.706-403.576 403.576s181.911 403.576 403.576 403.576c222.871 0 403.576-181.911 403.576-403.576s-180.706-403.576-403.576-403.576v0zM245.76 367.661c-22.889 0-42.165-19.275-42.165-42.165s19.275-42.165 42.165-42.165h272.264c22.889 0 42.165 19.275 42.165 42.165v319.247c0 22.889-19.275 42.165-42.165 42.165s-42.165-19.275-42.165-42.165v-277.082h-230.099z" />
<glyph unicode="&#xe936;" glyph-name="skype" data-tags="skype" d="M28.174 352.181c0-266.565 217.081-483.646 483.646-483.646 29.257 0 58.514 2.528 87.41 7.946 42.26-23.839 90.3-36.12 139.062-36.12 157.483 0 285.347 127.865 285.347 285.347 0 48.762-12.642 96.801-36.12 139.062 5.418 28.896 7.946 58.153 7.946 87.41 0 266.565-217.081 483.646-483.646 483.646-29.257 0-58.514-2.528-87.41-7.946-42.26 23.478-90.3 36.12-139.062 36.12-157.122 0-285.347-127.865-285.347-285.347 0-48.762 12.642-96.801 36.12-139.062-5.057-28.896-7.946-58.153-7.946-87.41v0zM29.618 578.653c0 140.868 114.861 255.729 255.729 255.729 45.511 0 89.939-11.92 128.948-35.036 3.251-1.806 6.863-2.528 10.475-1.806 28.535 5.418 58.153 8.308 87.41 8.308 250.311 0 454.028-203.716 454.028-454.028 0-29.257-2.89-58.514-8.308-87.049-0.722-3.612 0-7.224 1.806-10.475 22.756-39.010 35.036-83.798 35.036-128.948 0-140.868-114.861-255.729-255.729-255.729-45.15 0-89.939 11.92-128.948 35.036-2.167 1.445-4.696 2.167-7.585 2.167-1.084 0-1.806 0-2.89-0.361-28.535-5.418-57.792-8.308-87.049-8.308-251.034 0-454.75 203.716-454.75 454.028 0 29.257 2.89 58.514 8.308 87.049 0.722 3.612 0 7.224-1.806 10.475-22.394 39.010-34.675 83.437-34.675 128.948v0zM488.703 144.13c-81.992 8.308-110.527 83.798-115.584 98.607-13.364 40.454-57.069 47.678-81.27 45.511-11.92-1.084-39.010-9.752-55.263-34.314-15.17-23.117-16.976-52.374-5.418-87.41 18.421-56.347 80.547-151.343 289.682-151.343 174.82 0 279.207 109.443 279.207 214.914 0 110.527-76.935 174.82-249.228 208.412-125.697 24.562-147.008 55.263-150.259 67.183-3.251 11.558 6.14 22.756 14.448 30.341 22.033 19.505 76.574 34.675 122.808 26.368 18.421-3.251 42.622-11.92 54.541-33.592 29.618-54.902 59.237-98.969 120.641-84.159 19.866 4.696 35.398 18.060 44.428 37.926 12.642 27.090 11.558 64.293-2.89 92.106-15.893 31.786-88.855 113.778-231.168 113.778-75.129 0-144.48-14.809-195.048-41.899-62.126-33.23-94.995-83.798-94.995-145.925 0-61.765 28.896-111.972 86.327-149.898 55.986-36.842 127.865-53.096 178.071-60.32 85.965-12.281 113.417-40.093 122.085-55.263 6.14-10.836 6.863-22.394 2.528-33.23-13.726-32.508-61.404-65.016-133.644-57.792v0zM649.798 191.086c7.946 19.505 6.502 40.454-3.973 59.237-14.087 24.562-50.207 56.708-143.757 70.073-67.905 9.752-125.336 28.896-165.79 55.625-48.401 31.786-72.962 73.685-72.962 124.975 0 116.667 140.507 158.205 260.786 158.205 127.142 0 190.713-70.434 204.439-97.524 10.114-19.866 10.836-47.678 2.167-66.461-5.418-11.558-13.726-18.782-24.562-21.311-34.675-8.308-53.819 6.502-87.41 69.35-13.726 25.645-39.732 42.26-75.491 48.762-51.29 9.030-116.306-5.418-147.731-33.592-20.95-18.421-29.257-39.732-23.478-60.32 10.475-38.648 68.628-68.267 173.014-88.494 157.844-30.702 225.027-84.159 225.027-179.155 0-91.022-93.189-185.295-249.589-185.295-140.868 0-234.057 46.595-261.508 130.754-8.669 26.006-7.946 46.956 2.167 61.765 10.475 15.893 27.812 20.588 33.23 21.311 0.361 0 2.167 0.361 5.057 0.361 11.197 0 37.926-2.528 45.511-25.284 5.779-18.060 40.454-109.082 140.868-119.196 87.771-9.030 145.563 31.786 163.984 76.213v0z" />
<glyph unicode="&#xe937;" glyph-name="electron" data-tags="electron" horiz-adv-x="1092" d="M273.084 727.587h-204.749c-37.764 0-68.335-30.828-68.335-68.335v-750.916c0-37.764 30.571-68.335 68.335-68.335h204.749c37.764 0 68.335 30.571 68.335 68.335v750.916c0 37.507-30.571 68.335-68.335 68.335v0zM102.503 44.749c-18.754 0-34.168 15.157-34.168 34.168 0 18.754 15.157 34.168 34.168 34.168 18.754 0 34.168-15.157 34.168-34.168-0.257-19.011-15.414-34.168-34.168-34.168v0zM273.084 454.503h-204.749v68.335h204.749v-68.335zM273.084 590.916h-204.749v68.335h204.749v-68.335zM716.749-23.587v68.335h-204.749v-68.335c-37.764 0-68.335-30.571-68.335-68.335h341.419c0 37.764-30.571 68.335-68.335 68.335v0zM1024 864h-819.251c-37.764 0-68.335-30.571-68.335-68.335h887.587v-546.168h-614.246v-136.67h614.503c37.764 0 68.335 30.571 68.335 68.335v614.503c-0.257 37.764-30.828 68.335-68.592 68.335v0zM614.503 147.251c-18.754 0-34.168 15.157-34.168 34.168 0 18.754 15.157 34.168 34.168 34.168 18.754 0 34.168-15.157 34.168-34.168s-15.414-34.168-34.168-34.168v0z" />
<glyph unicode="&#xe938;" glyph-name="mobile" data-tags="mobile" horiz-adv-x="578" d="M504.846 864h-431.265c-40.878 0-73.581-32.703-73.581-73.581v-874.794c0-40.878 32.703-73.581 73.581-73.581h431.265c40.878 0 73.581 32.703 73.581 73.581v874.794c0 40.878-32.703 73.581-73.581 73.581v0zM183.952 819.034h212.567c6.132 0 10.22-8.176 10.22-18.395s-4.088-18.395-10.22-18.395h-212.567c-6.132 0-10.22 8.176-10.22 18.395s4.088 18.395 10.22 18.395v0zM290.236-86.419c-26.571 0-47.010 20.439-47.010 47.010s22.483 47.010 47.010 47.010c26.571 0 47.010-20.439 47.010-47.010s-20.439-47.010-47.010-47.010v0zM523.242 77.094h-468.056v660.184h468.056v-660.184z" />
</font>
</defs>
</svg>
